<svg xmlns="http://www.w3.org/2000/svg" width="0" height="0" class="hidden">
  <symbol  id="search" fill="none" width="24" height="24" >
    <path
      fill-rule="evenodd"
      clip-rule="evenodd"
      d="M8.05888 4.77944C8.05888 6.59063 6.59063 8.05888 4.77944 8.05888C2.96826 8.05888 1.5 6.59063 1.5 4.77944C1.5 2.96826 2.96826 1.5 4.77944 1.5C6.59063 1.5 8.05888 2.96826 8.05888 4.77944ZM7.58708 8.64771C6.79881 9.22083 5.8286 9.55888 4.77944 9.55888C2.13983 9.55888 0 7.41905 0 4.77944C0 2.13983 2.13983 0 4.77944 0C7.41905 0 9.55888 2.13983 9.55888 4.77944C9.55888 5.82859 9.22084 6.79878 8.64773 7.58704L12.001 10.9403L10.9403 12.001L7.58708 8.64771Z"
      fill="#171F46"
    />
  </symbol> 
  <symbol  id="back"   fill="none" width="7" height="12" >
    <path fill-rule="evenodd" clip-rule="evenodd" d="M5.87352 1.34331e-08L7 1.15074L2.25296 6L7 10.8493L5.87352 12L0.684789 6.69953C0.304253 6.3108 0.304254 5.68919 0.684789 5.30046L5.87352 1.34331e-08Z" fill="#171F46"/>
  </symbol> 
</svg>